<svg xmlns="http://www.w3.org/2000/svg" viewBox="0 0 64 64"><defs><style>.cls-1{fill:#fff}</style></defs><g id="filled_outline" data-name="filled outline"><rect width="41" height="50" x="11.5" y="9.5" class="cls-1" rx="5" transform="rotate(90 32 34.5)"/><path d="M7 24v-5a5 5 0 0 1 5-5h40a5 5 0 0 1 5 5v5Z" style="fill:#1394f6"/><path d="M20 19a2 2 0 0 1-2-2v-6a2 2 0 0 1 4 0v6a2 2 0 0 1-2 2Zm24 0a2 2 0 0 1-2-2v-6a2 2 0 0 1 4 0v6a2 2 0 0 1-2 2Z" class="cls-1"/><path d="M52 13h-5v-2a3 3 0 0 0-6 0v2H23v-2a3 3 0 0 0-6 0v2h-5a6 6 0 0 0-6 6v31a6 6 0 0 0 6 6h40a6 6 0 0 0 6-6V19a6 6 0 0 0-6-6Zm-9-2a1 1 0 0 1 2 0v6a1 1 0 0 1-2 0Zm-24 0a1 1 0 0 1 2 0v6a1 1 0 0 1-2 0Zm-7 4h5v2a3 3 0 0 0 6 0v-2h18v2a3 3 0 0 0 6 0v-2h5a4 4 0 0 1 4 4v5H8v-5a4 4 0 0 1 4-4Zm40 39H12a4 4 0 0 1-4-4V26h48v24a4 4 0 0 1-4 4Zm-30-9.5V46h8v2H20v-3.5a5.51 5.51 0 0 1 5.5-5.5 2.5 2.5 0 0 0 0-5H21v-2h4.5a4.5 4.5 0 0 1 0 9 3.5 3.5 0 0 0-3.5 3.5ZM44 36v8a4 4 0 0 1-4 4h-6v-2h6a2 2 0 0 0 2-2v-3h-6v-2h6v-3a2 2 0 0 0-2-2h-6v-2h6a4 4 0 0 1 4 4Z"/></g></svg>