<svg xmlns="http://www.w3.org/2000/svg" xml:space="preserve" style="enable-background:new 0 0 22 24" viewBox="0 0 22 24"><linearGradient id="a" x1="11" x2="11" y1="0" y2="24" gradientUnits="userSpaceOnUse"><stop offset="0" style="stop-color:#00ee42"/><stop offset="1" style="stop-color:#00a842"/></linearGradient><path d="M20.4 1S15.6 0 11 0 1.6 1 1.6 1C.7 1.2 0 2 0 3v6c0 10.4 10 14.7 10 14.7.3.2.6.3 1 .3s.7-.1 1-.3c0 0 10-4.3 10-14.7V3c0-1-.7-1.8-1.6-2zm-2.7 6.7-7.6 7.6c-.2.2-.4.3-.7.3s-.5-.1-.7-.3l-3.5-3.5c-.4-.4-.4-1 0-1.4.4-.4 1-.4 1.4 0l2.7 2.7 6.9-6.9c.4-.4 1-.4 1.4 0 .5.5.5 1.1.1 1.5z" style="fill:url(#a)"/></svg>