<svg xmlns="http://www.w3.org/2000/svg" xml:space="preserve" style="enable-background:new 0 0 256 256" viewBox="0 0 256 256"><path d="M97.2 117.2c.9-1 1.5-2.3 1.4-3.6l-.1-3.9v-.1c0-2.3-.4-14.1-1.6-21.7-.9-5.3-4.3-9.9-9.2-12.3-4.4-2.2-11.1-4.8-16.5-6.7.8-1.3 1.5-2.6 2.1-4 3.1-1.5 5.6-4.1 6.9-7.1 1.2-2.2 1.8-4.7 1.8-7.2 0-1.6-.3-3.3-.8-4.8-.3-1.3-.9-2.6-1.7-3.7.6-6.9-1.4-13.9-5.7-19.4-5.4-6.9-13.6-10.9-22.8-11.1h-2.1c-9 .2-17.2 4.3-22.6 11.1C22.2 28 20.2 35 20.8 42c-.8 1.1-1.3 2.4-1.7 3.7-.5 1.5-.8 3.2-.8 4.8 0 2.5.6 5 1.6 6.9 1.4 3.3 3.9 5.9 7 7.4.6 1.4 1.3 2.8 2.1 4-5.6 2-12.2 4.6-16.5 6.7-4.8 2.4-8.3 7-9.2 12.3-1.3 7.7-1.6 19.5-1.7 21.8l-.1 3.9c0 1.4.5 2.7 1.4 3.6.9 1 2.2 1.5 3.6 1.5h86.9c1.6.1 2.9-.4 3.8-1.4zm-85.3-8.6c.1-3.5.5-13 1.5-19 .4-2.2 1.8-4 3.7-5 5.8-2.9 17-6.9 21.6-8.5 2-.7 3.4-2.6 3.4-4.8v-.9c0-1.5-.6-2.8-1.7-3.8-2.1-1.8-3.6-4.3-4.4-7.1-.5-1.7-1.8-3-3.5-3.5-1.4-.4-2.6-1.4-3.4-3.1-.4-.8-.6-1.7-.6-2.6 0-.6.1-1.1.3-1.7.1-.2.1-.3.1-.5.1-.4.3-.8.6-1 1.3-1.2 1.9-2.9 1.6-4.7-.9-4.9.3-10 3.4-13.9 3.5-4.5 8.9-7.1 14.7-7.3H51c6 .1 11.4 2.8 14.9 7.3 3 3.9 4.3 9 3.4 13.9-.3 1.7.3 3.5 1.6 4.7.3.3.5.6.6 1 0 .2.1.4.2.6.2.5.3 1.1.3 1.6 0 .9-.2 1.8-.8 2.9-.6 1.4-1.8 2.4-3.2 2.8-1.7.5-3 1.8-3.5 3.5-.8 2.8-2.3 5.2-4.5 7.1-1.1 1-1.7 2.3-1.7 3.8v.9c0 2.1 1.4 4.1 3.4 4.8 3.5 1.2 15.5 5.4 21.6 8.5 1.9 1 3.3 2.8 3.7 5 .9 5 1.3 13.1 1.5 19H11.9zm242.4 1.1s0-.1 0 0c-.1-2.4-.4-14.2-1.7-21.8-.9-5.3-4.3-9.9-9.2-12.3-4.4-2.2-11.1-4.8-16.5-6.7.8-1.3 1.5-2.6 2.1-4 3.1-1.5 5.6-4.1 6.9-7.1 1.2-2.2 1.8-4.7 1.8-7.2 0-1.6-.3-3.3-.8-4.8-.3-1.3-.9-2.6-1.7-3.7.6-6.9-1.4-13.9-5.7-19.4-5.4-6.9-13.6-10.9-22.8-11.1h-2.1c-9 .2-17.2 4.3-22.6 11.1-4.3 5.5-6.3 12.5-5.7 19.5-.8 1.1-1.3 2.3-1.7 3.7-.5 1.5-.8 3.2-.8 4.8 0 2.5.6 5 1.6 6.9 1.4 3.3 3.9 5.9 7 7.4.6 1.4 1.3 2.8 2.1 4-5.6 2-12.2 4.6-16.5 6.7-4.8 2.4-8.3 7-9.2 12.3-1.3 7.7-1.6 19.5-1.7 21.8l-.1 3.9c0 1.4.5 2.7 1.4 3.6.9 1 2.2 1.5 3.6 1.5h86.9c1.4 0 2.6-.5 3.6-1.5.9-1 1.5-2.3 1.4-3.6l.4-4zm-86.8-1.1c.1-3.5.5-12.9 1.5-19 .4-2.2 1.8-4 3.7-5 5.8-2.9 17-6.9 21.6-8.5 2-.7 3.4-2.6 3.4-4.8v-.9c0-1.5-.6-2.8-1.7-3.8-2.1-1.8-3.7-4.3-4.4-7.1-.5-1.7-1.8-3-3.5-3.5-1.4-.4-2.6-1.4-3.4-3.1-.4-.8-.6-1.7-.6-2.6 0-.6.1-1.1.3-1.7.1-.2.1-.3.2-.5.1-.4.3-.7.6-1 1.3-1.2 1.9-2.9 1.6-4.7-.9-4.9.3-10 3.4-13.9 3.5-4.5 8.9-7.1 14.7-7.3h1.8c6 .1 11.4 2.8 14.9 7.3 3 3.9 4.3 9 3.4 13.9-.3 1.7.3 3.5 1.6 4.7.3.3.5.6.6 1 0 .2.1.4.2.6.2.5.3 1.1.3 1.6 0 .9-.2 1.8-.8 2.9-.6 1.4-1.8 2.4-3.2 2.8-1.7.5-3 1.8-3.5 3.5-.8 2.8-2.3 5.2-4.5 7.1-1.1 1-1.7 2.3-1.7 3.8v.9c0 2.1 1.4 4.1 3.4 4.8 3.5 1.2 15.5 5.4 21.6 8.5 1.9 1 3.3 2.8 3.7 5 .9 5 1.3 13.1 1.5 19h-76.7zm7.3 105.2c-.9-5.3-4.4-9.9-9.2-12.3-4.3-2.1-10.9-4.7-16.5-6.7.8-1.3 1.5-2.6 2.1-4 3.1-1.6 5.6-4.1 6.9-7.1 1.2-2.2 1.8-4.7 1.8-7.2 0-1.7-.3-3.3-.8-4.9-.3-1.3-.9-2.5-1.7-3.6.6-6.9-1.4-13.9-5.7-19.5-5.4-6.9-13.6-10.9-22.8-11.1h-2.1c-9 .2-17.2 4.3-22.6 11.1-4.3 5.5-6.3 12.5-5.7 19.5-.8 1.1-1.3 2.3-1.7 3.7-.5 1.6-.8 3.2-.8 4.8 0 2.5.6 5 1.6 6.9 1.4 3.3 3.9 5.9 7 7.4.6 1.4 1.3 2.8 2.1 4-5.6 2-12.2 4.6-16.5 6.7-4.8 2.4-8.2 7-9.2 12.3-1.3 7.7-1.6 19.4-1.7 21.8l-.1 3.9c0 1.4.5 2.7 1.4 3.6.9 1 2.2 1.5 3.6 1.5h86.9c1.4 0 2.6-.5 3.6-1.5.9-1 1.5-2.3 1.4-3.6l-.1-4c.4-2.2.1-14-1.2-21.7zm-85.1 20.8c.1-3.5.5-13 1.5-19 .4-2.2 1.8-4 3.7-5 5.8-2.9 17-6.9 21.6-8.5 2-.7 3.4-2.6 3.4-4.8v-.9c0-1.5-.6-2.8-1.7-3.8-2.1-1.8-3.7-4.3-4.4-7.1-.5-1.7-1.8-3-3.5-3.5-1.4-.4-2.6-1.4-3.4-3.1-.4-.8-.6-1.7-.6-2.6 0-.6.1-1.1.3-1.7.1-.2.1-.3.1-.5.1-.4.3-.8.6-1 1.3-1.2 1.9-2.9 1.6-4.7-.9-4.9.3-10 3.4-13.9 3.5-4.5 8.9-7.1 14.7-7.3h1.8c6 .1 11.4 2.8 14.9 7.3 3.1 3.9 4.3 9 3.4 13.9-.3 1.7.3 3.5 1.6 4.7.3.3.5.6.6 1 0 .2.1.4.2.6.2.5.3 1.1.3 1.6 0 .9-.2 1.8-.8 2.9-.6 1.4-1.8 2.4-3.2 2.8-1.7.5-3 1.8-3.5 3.5-.8 2.8-2.3 5.2-4.5 7.1-1.1 1-1.7 2.3-1.7 3.8v.9c0 2.1 1.4 4.1 3.4 4.8 4.5 1.6 15.8 5.6 21.6 8.5 2 1 3.3 2.8 3.7 5 .9 5 1.3 13.1 1.5 19H89.7zm124.9-103c-2.7-.3-5.2 1.7-5.5 4.5-2.1 21-12.1 40.1-28.1 53.7-2.1 1.8-2.4 5-.6 7.1 1 1.2 2.4 1.8 3.8 1.8 1.2 0 2.3-.4 3.3-1.2 18.1-15.4 29.3-36.8 31.6-60.4.2-2.8-1.8-5.3-4.5-5.5zM47 136.1c-.3-2.8-2.8-4.8-5.5-4.5-2.8.3-4.8 2.7-4.5 5.5 2.3 23.6 13.6 45.1 31.6 60.4.9.8 2.1 1.2 3.3 1.2 1.4 0 2.8-.6 3.8-1.8 1.8-2.1 1.5-5.3-.6-7.1-16-13.6-26-32.7-28.1-53.7zm52.6-84.7c.6 0 1.1-.1 1.7-.3 17-6 36.4-6 53.4 0 2.6.9 5.5-.4 6.4-3.1.9-2.6-.4-5.5-3.1-6.4-19.2-6.8-41-6.8-60.1 0-2.6.9-4 3.8-3.1 6.4.8 2.1 2.8 3.4 4.8 3.4z"/></svg>