<svg xmlns="http://www.w3.org/2000/svg" fill="#DB463E" viewBox="0 0 300 300"><path d="m50.2 97.2-.2-.1.2.1zm100.4-50.9 46.2-23.4L150 .2l-45.5 22.1zm83.5-5.3-46.5 24.3L250 97.1v154.7l50-24.1V72.9zM63.6 42.1 0 72.9v154.8l50 24.2V97.2l.2.1L111.4 66 63.6 42.1z"/><path d="M149.9 84.7 90 116v154.8l60 29 60-29V116zm14.3-31.6h-.8c-.1 0-9.8-.7-13.8 12.1-3.4 11.2-11.3 10.7-11.7 10.7h-.5c-5.6-.2-9.9-4.8-9.9-10.4 0-5.7 4.7-10.4 10.4-10.4 3.6 0 6.8 1.8 8.8 4.8l1.7-1.1c-2.3-3.6-6.2-5.7-10.5-5.7-6.8 0-12.4 5.6-12.4 12.4 0 6.7 5.2 12.1 11.9 12.4h.8c1.8 0 9.9-.6 13.4-12.1 3.4-11.2 11.3-10.7 11.7-10.7h.8c5.4.4 9.6 5 9.6 10.4 0 5.7-4.7 10.4-10.4 10.4-3.6 0-6.8-1.8-8.8-4.8l-1.7 1.1c2.3 3.6 6.2 5.7 10.5 5.7 6.8 0 12.4-5.6 12.4-12.4 0-6.5-5-11.9-11.5-12.4z"/></svg>