<svg xmlns="http://www.w3.org/2000/svg" xml:space="preserve" style="enable-background:new 0 0 512 512" viewBox="0 0 512 512"><path d="M256 0C114.6 0 0 114.6 0 256s114.6 256 256 256 256-114.6 256-256S397.4 0 256 0zm148.9 263.2c-7.3 7.3-18.1 9-27 5.1v97.1c0 20.2-16.4 36.6-36.6 36.6H170.7c-20.2 0-36.6-16.4-36.6-36.6v-97.1c-8.9 3.9-19.7 2.2-27-5.1-9.5-9.5-9.5-25 0-34.5L238.8 97.1c9.5-9.5 25-9.5 34.5 0l131.6 131.6c9.5 9.6 9.5 25 0 34.5z"/><path d="M286.5 267.9h-60.9c-6.7 0-12.2 5.5-12.2 12.2v73.1c0 6.7 5.5 12.2 12.2 12.2h60.9c6.7 0 12.2-5.5 12.2-12.2v-73.1c0-6.7-5.5-12.2-12.2-12.2z"/></svg>