<svg xmlns="http://www.w3.org/2000/svg" xml:space="preserve" style="enable-background:new 0 0 24 24" viewBox="0 0 24 24"><style>.st1{display:inline}.st2{opacity:.2;fill:none;stroke:#000;stroke-width:5.000000e-02;stroke-miterlimit:10}</style><path d="M21 7c0-2.2-1.8-4-4-4h-1c-.6 0-1 .4-1 1s.4 1 1 1h1c1.1 0 2 .9 2 2v1.1c0 .6.4 1 1 1s1-.4 1-1V7zm0 9c0-.6-.4-1-1-1s-1 .4-1 1v1c0 1.1-.9 2-2 2h-1c-.6 0-1 .4-1 1s.4 1 1 1h1c2.2 0 4-1.8 4-4v-1zM3 17c0 2.2 1.8 4 4 4h1c.6 0 1-.4 1-1s-.4-1-1-1H7c-1.1 0-2-.9-2-2v-1c0-.6-.4-1-1-1s-1 .4-1 1v1zM8 3H7C4.8 3 3 4.8 3 7v1c0 .6.4 1 1 1s1-.4 1-1V7c0-1.1.9-2 2-2h1c.6 0 1-.4 1-1s-.4-1-1-1zm7 6c0-1.7-1.3-3-3-3S9 7.3 9 9s1.3 3 3 3 3-1.3 3-3zm-3 1c-.6 0-1-.4-1-1s.4-1 1-1 1 .4 1 1-.4 1-1 1z"/><path d="m7.5 14.4-.4 1.3c-.2.5.1 1.1.6 1.3.5.2 1.1-.1 1.3-.6l.4-1.4c.2-.6.8-1 1.4-1h2.4c.6 0 1.2.4 1.4 1l.4 1.3c.1.4.5.7.9.7.1 0 .2 0 .3-.1.5-.2.8-.7.6-1.3l-.4-1.3C16 13 14.7 12 13.2 12h-2.4c-1.5 0-2.8 1-3.3 2.4z"/></svg>