<svg xmlns="http://www.w3.org/2000/svg" xml:space="preserve" id="Layer_1" x="0" y="0" style="enable-background:new 0 0 18 23" version="1.1" viewBox="0 0 18 23"><style>.st1{fill:url(#SVGID_00000074436876299685448020000005658101903462098091_)}.st3{fill:url(#SVGID_00000159458207448275644570000004424752992406587279_)}</style><linearGradient id="SVGID_1_" x1="9" x2="9" y1="25.809" y2="17.016" gradientTransform="matrix(1 0 0 -1 0 26)" gradientUnits="userSpaceOnUse"><stop offset="0" style="stop-color:#5d5c66"/><stop offset="1" style="stop-color:#48474f"/></linearGradient><path d="M14 10c-.6 0-1-.4-1-1V6c0-2.2-1.8-4-4-4S5 3.8 5 6v3c0 .6-.4 1-1 1s-1-.4-1-1V6c0-3.3 2.7-6 6-6s6 2.7 6 6v3c0 .6-.4 1-1 1z" style="fill:url(#SVGID_1_)"/><linearGradient id="SVGID_00000045582300189465342380000017748116411117847435_" x1="9" x2="9" y1="16.915" y2="2.999" gradientTransform="matrix(1 0 0 -1 0 26)" gradientUnits="userSpaceOnUse"><stop offset="0" style="stop-color:#fff650"/><stop offset="1" style="stop-color:#ffab17"/></linearGradient><path d="M3 9h12c1.7 0 3 1.3 3 3v8c0 1.7-1.3 3-3 3H3c-1.7 0-3-1.3-3-3v-8c0-1.7 1.3-3 3-3z" style="fill:url(#SVGID_00000045582300189465342380000017748116411117847435_)"/><path d="M9 20c-.6 0-1-.4-1-1v-3c0-.6.4-1 1-1s1 .4 1 1v3c0 .6-.4 1-1 1z" style="fill:#3d3c44"/><linearGradient id="SVGID_00000061460262695698946180000001011887281694649783_" x1="9" x2="9" y1="13.085" y2="8.904" gradientTransform="matrix(1 0 0 -1 0 26)" gradientUnits="userSpaceOnUse"><stop offset="0" style="stop-color:#5d5c66"/><stop offset="1" style="stop-color:#48474f"/></linearGradient><circle cx="9" cy="15" r="2" style="fill:url(#SVGID_00000061460262695698946180000001011887281694649783_)"/></svg>