<svg xmlns="http://www.w3.org/2000/svg" xml:space="preserve" viewBox="0 0 300 300"><path d="M216.94 25.09C112.53 25.09 0 152.68 0 235.1c0 32.36 17.4 39.81 35.5 39.81 38.28 0 67.05-33.29 84.22-59.6-2.09 5.82-3.25 11.64-3.25 17.23 0 15.37 8.82 26.31 26.22 26.31 23.9 0 49.42-20.95 62.64-43.54-.93 3.26-1.39 6.29-1.39 9.08 0 10.71 6.03 17.46 18.33 17.46 38.75 0 77.73-68.68 77.73-128.75 0-46.8-23.67-88.01-83.06-88.01m-24.33 106.84c-9.14 0-17.05-6.82-17.05-20.45 0-13.64 7.91-20.45 17.05-20.45 9 0 17.05 6.82 17.05 20.45s-8.05 20.45-17.05 20.45m51.13 0c-9.14 0-17.05-6.82-17.05-20.45 0-13.64 7.91-20.45 17.05-20.45 9 0 17.05 6.82 17.05 20.45s-8.05 20.45-17.05 20.45" style="fill-rule:evenodd;clip-rule:evenodd;fill:#fff"/></svg>