<svg xmlns="http://www.w3.org/2000/svg" xml:space="preserve" style="enable-background:new 0 0 50 50" version="1.1" viewBox="0 0 50 50"><path d="m30.8 36.6 5.8 8.1c.1.2.5.2.5-.1l2.5-7.9c.1-.2-.1-.4-.3-.4l-8.3-.2c-.2 0-.3.3-.2.5zm-12.1-24-5.8-8.1c-.1-.2-.5-.2-.5.1l-2.5 7.9c-.1.2.1.4.3.4l8.3.2c.2 0 .4-.3.2-.5z" style="stroke:#000;stroke-width:3;stroke-linecap:round;stroke-miterlimit:10"/><path d="M39.4 36.5c-3.5 4.3-8.7 7-14.6 7C14.4 43.5 6 35.1 6 24.7c0-1.5.2-2.9.5-4.3m3.6-7.8c3.5-4.3 8.7-7 14.6-7 10.4 0 18.8 8.4 18.8 18.8 0 1.5-.2 2.9-.5 4.3" style="stroke:#000;stroke-width:3;stroke-linecap:round;stroke-miterlimit:10;fill:none"/></svg>