<svg xmlns="http://www.w3.org/2000/svg" viewBox="0 0 300 300" style="enable-background:new 0 0 300 300" xml:space="preserve"><style>.st3{fill:#0274f9}.st4{fill:#00b3fe}</style><path style="fill:#00358f" d="M150 299.8 0 227.7V72.9L150 .2"/><path style="fill:#012453" d="m150 .2 150 72.7v154.8l-150 72.1"/><path d="m73.1 109.3-.2-.1.2.1z" style="fill:#fff"/><path class="st3" d="M150 70.1 185.6 52 150 34.6"/><path class="st4" d="m150 34.6-35.6 17L150 70.1"/><path class="st3" d="M214.8 66 179 84.8l48 24.4v119.3l38.6-18.7V90.6z"/><path class="st4" d="m83.4 66.8-49 23.7v119.3L73 228.5V109.3l.2.1 47.2-24.1-37-18.5z"/><path class="st3" d="m150 265.4 46.2-22.4V123.8L150 99.7"/><path class="st4" d="m150 99.7-46.2 24.1V243l46.2 22.4m11-190.1h-.7c-.1 0-7.6-.6-10.6 9.3-2.6 8.7-8.7 8.3-9 8.2h-.4c-4.3-.2-7.7-3.7-7.7-8 0-4.4 3.6-8 8-8 2.7 0 5.3 1.4 6.8 3.7l1.3-.8c-1.8-2.8-4.8-4.4-8.1-4.4-5.3 0-9.6 4.3-9.6 9.6 0 5.1 4 9.3 9.1 9.6h.7c1.4 0 7.6-.5 10.3-9.4 2.6-8.7 8.7-8.3 9-8.2h.6c4.2.3 7.4 3.8 7.4 8 0 4.4-3.6 8-8 8-2.7 0-5.3-1.4-6.8-3.7l-1.3.8c1.8 2.8 4.8 4.4 8.1 4.4 5.3 0 9.6-4.3 9.6-9.6.1-4.9-3.8-9.1-8.7-9.5z"/></svg>