<svg width="190" height="64" viewBox="0 0 190 64" fill="none" xmlns="http://www.w3.org/2000/svg">
<path d="M86.1738 30.5337C85.973 30.2505 85.7499 30.0062 85.4932 29.8008C85.2366 29.5954 84.9689 29.4289 84.6844 29.2956C84.3999 29.1624 84.1154 29.0625 83.8309 29.0014C83.5464 28.9403 83.273 28.9015 83.0164 28.896H82.9997H77.533C77.0811 28.896 76.7296 28.7627 76.4786 28.5017C76.2275 28.2353 76.0993 27.8799 76.0993 27.4247C76.0993 26.9751 76.2275 26.6141 76.4786 26.3421C76.7296 26.0701 77.0811 25.9313 77.533 25.9313H85.6215V23.5662H77.533C77.148 23.5662 76.7353 23.6329 76.2889 23.7717C75.8427 23.9105 75.4298 24.1269 75.0505 24.4378C74.6712 24.7431 74.3532 25.1429 74.1022 25.6315C73.8512 26.12 73.7229 26.7196 73.7229 27.4302C73.7229 28.1409 73.8512 28.7405 74.1022 29.229C74.3532 29.7176 74.6712 30.1173 75.0505 30.4226C75.4298 30.7281 75.8427 30.9445 76.2889 31.0833C76.7353 31.2221 77.148 31.2887 77.533 31.2887H82.9997C83.2173 31.2887 83.4181 31.3276 83.5966 31.3998C83.7751 31.472 83.9313 31.5775 84.0541 31.7107C84.1768 31.8439 84.2771 31.9994 84.3442 32.1826C84.4111 32.3658 84.4445 32.5657 84.4445 32.7822C84.4445 33.2319 84.3162 33.5872 84.0652 33.8537C83.8141 34.1202 83.4571 34.2534 82.9997 34.2534H73.8289V36.6184H82.9997C83.2564 36.6184 83.5297 36.5907 83.8198 36.5297C84.1098 36.4686 84.3943 36.3742 84.6732 36.2465C84.9522 36.1188 85.2255 35.9579 85.4877 35.7579C85.7499 35.5581 85.9786 35.3138 86.1738 35.0306C86.369 34.7475 86.5253 34.4144 86.6424 34.0424C86.7596 33.6705 86.8209 33.2485 86.8209 32.7822C86.8209 32.3158 86.7651 31.8994 86.6479 31.5274C86.5308 31.1499 86.3746 30.8224 86.1738 30.5337Z" fill="white"/>
<path d="M101.001 24.9257C100.516 24.4427 99.9355 24.0652 99.2661 23.7932C98.5967 23.5211 97.8716 23.3823 97.085 23.3823H93.8663C93.0797 23.3823 92.3489 23.5211 91.6795 23.7932C91.0101 24.0652 90.43 24.4427 89.9447 24.9257C89.4593 25.4087 89.0745 25.9862 88.7956 26.6523C88.5167 27.3186 88.3772 28.0515 88.3772 28.8398V31.3325C88.3772 32.1264 88.5167 32.8593 88.7956 33.5255C89.0745 34.1917 89.4538 34.7691 89.9447 35.2521C90.43 35.7351 91.0101 36.1126 91.6795 36.3847C92.3489 36.6567 93.0797 36.79 93.8663 36.79H97.085C97.8716 36.79 98.5967 36.6567 99.2661 36.3847C99.9355 36.1126 100.51 35.7351 101.001 35.2521C101.486 34.7691 101.871 34.1917 102.145 33.5255C102.418 32.8593 102.557 32.1264 102.557 31.3325V28.8398C102.557 28.0515 102.418 27.3242 102.145 26.6523C101.871 25.9806 101.486 25.4087 101.001 24.9257ZM100.175 31.3381C100.175 31.8045 100.103 32.2263 99.9523 32.6094C99.8017 32.9869 99.5897 33.3146 99.3164 33.581C99.043 33.853 98.7139 34.0585 98.3346 34.2084C97.9552 34.3582 97.5313 34.4304 97.0683 34.4304H93.8663C93.4033 34.4304 92.9793 34.3582 92.6 34.2084C92.2207 34.0585 91.8916 33.853 91.6182 33.581C91.3448 33.309 91.1329 32.9869 90.9823 32.6094C90.8317 32.2319 90.7591 31.8099 90.7591 31.3381V28.8454C90.7591 28.379 90.8317 27.957 90.9823 27.5739C91.1329 27.1964 91.3448 26.8689 91.6182 26.6024C91.8916 26.3304 92.2207 26.125 92.6 25.975C92.9793 25.8251 93.4033 25.7529 93.8663 25.7529H97.085C97.5424 25.7529 97.9608 25.8251 98.3401 25.975C98.7194 26.125 99.0486 26.3304 99.3164 26.6024C99.5897 26.8745 99.7961 27.1964 99.9467 27.5739C100.097 27.9515 100.17 28.3734 100.17 28.8454V31.3381H100.175Z" fill="white"/>
<path d="M107.277 23.5674H104.9V35.4205C104.9 35.5926 104.928 35.7481 104.99 35.8924C105.051 36.0368 105.135 36.1645 105.241 36.27C105.347 36.3754 105.475 36.4587 105.62 36.5198C105.765 36.5809 105.927 36.6086 106.094 36.6086H116.939V34.2436H107.277V23.5674Z" fill="white"/>
<path d="M119.41 23.6557C119.265 23.7168 119.136 23.8001 119.03 23.9112C118.924 24.0222 118.841 24.1499 118.779 24.2943C118.718 24.4385 118.69 24.594 118.69 24.7606V36.6137H121.067V31.284H130.589V28.9022H121.067V25.9376H130.594V23.5725H119.889C119.716 23.567 119.555 23.5947 119.41 23.6557Z" fill="white"/>
<path d="M134.889 23.5674H132.513V35.4205C132.513 35.5926 132.541 35.7481 132.602 35.8924C132.664 36.0368 132.748 36.1645 132.854 36.27C132.96 36.3754 133.088 36.4587 133.233 36.5198C133.377 36.5809 133.54 36.6086 133.708 36.6086H144.551V34.2436H134.889V23.5674Z" fill="white"/>
<path d="M158.81 23.9117C158.699 23.8006 158.57 23.7173 158.425 23.6562C158.28 23.5952 158.124 23.5674 157.957 23.5674H152.601C151.658 23.5674 150.783 23.7284 149.985 24.0505C149.187 24.3724 148.496 24.8221 147.91 25.3996C147.324 25.9769 146.867 26.6653 146.538 27.4648C146.209 28.2642 146.046 29.1414 146.046 30.0963V36.6197H148.423V33.4108H156.78V36.6142H159.156V24.761C159.156 24.6001 159.128 24.4446 159.067 24.2947C159.005 24.1504 158.922 24.0227 158.81 23.9117ZM156.78 31.0457H148.428V30.0908C148.428 29.4301 148.523 28.8694 148.708 28.403C148.892 27.9367 149.132 27.5536 149.416 27.2427C149.7 26.9318 150.018 26.6931 150.358 26.5154C150.699 26.3377 151.022 26.2101 151.335 26.1268C151.642 26.0435 151.915 25.988 152.15 25.9658C152.384 25.9436 152.539 25.9325 152.612 25.9325H156.791V31.0457H156.78Z" fill="white"/>
<path d="M171.557 32.2449C171.891 32.1783 172.22 32.0728 172.544 31.9229C172.867 31.7729 173.18 31.5842 173.481 31.3566C173.782 31.1234 174.045 30.8514 174.273 30.5239C174.502 30.2018 174.686 29.8243 174.82 29.4023C174.953 28.9805 175.021 28.4975 175.021 27.9533V26.4432C175.021 26.1546 174.97 25.8381 174.869 25.505C174.77 25.1719 174.602 24.861 174.374 24.5723C174.145 24.2836 173.849 24.0449 173.481 23.8561C173.113 23.6674 172.666 23.5674 172.136 23.5674H163.116C162.944 23.5674 162.787 23.5952 162.642 23.6562C162.497 23.7173 162.368 23.8006 162.263 23.9117C162.157 24.0227 162.073 24.1504 162.012 24.2947C161.951 24.4391 161.922 24.5945 161.922 24.761V36.6142H164.299V32.3448H166.96L171.913 36.6142H175.589L170.625 32.3448C170.915 32.3448 171.228 32.3115 171.557 32.2449ZM164.293 29.9798V25.9325H172.136C172.187 25.9325 172.237 25.938 172.299 25.9436C172.354 25.9492 172.41 25.9714 172.46 26.0047C172.511 26.038 172.555 26.088 172.588 26.1602C172.622 26.2322 172.639 26.3322 172.639 26.4655V27.9589C172.639 28.2698 172.588 28.5418 172.493 28.7805C172.399 29.0192 172.259 29.2247 172.076 29.3968C171.897 29.5689 171.685 29.7022 171.434 29.8021C171.188 29.902 170.915 29.9631 170.614 29.9908H164.293V29.9798Z" fill="white"/>
<path d="M189.251 25.9325V23.5674H178.545C178.373 23.5674 178.216 23.5952 178.072 23.6562C177.927 23.7173 177.799 23.8006 177.693 23.9117C177.587 24.0227 177.503 24.1504 177.441 24.2947C177.38 24.4391 177.352 24.5945 177.352 24.761V33.2941C177.352 33.9049 177.463 34.4212 177.687 34.8431C177.91 35.2651 178.189 35.6093 178.518 35.8702C178.852 36.1367 179.21 36.3254 179.6 36.4365C179.991 36.5531 180.348 36.6086 180.677 36.6086H189.251V34.2436H180.693C180.375 34.2436 180.136 34.1602 179.974 33.9993C179.812 33.8382 179.728 33.5995 179.728 33.2886V31.2789H189.178V28.8972H179.728V25.9325H189.251Z" fill="white"/>
<path d="M32.2186 61.3252C32.8906 61.3252 33.4354 61.864 33.4354 62.5287C33.4354 63.1934 32.8906 63.7323 32.2186 63.7323C31.5465 63.7323 31.0017 63.1934 31.0017 62.5287C31.0017 61.864 31.5465 61.3252 32.2186 61.3252ZM30.8966 3.83327C31.4912 3.88237 31.9716 4.33299 32.052 4.91718L33.4993 15.4333C33.9855 18.9077 38.1758 20.413 40.7624 18.052L55.2636 4.85327C55.6134 4.53489 56.1582 4.55695 56.4805 4.90255C56.7761 5.21963 56.785 5.70507 56.5012 6.0325L43.8559 20.6191C41.5279 23.2997 43.2455 27.4854 46.7943 27.7843L57.9517 28.8598C58.5074 28.9134 58.9139 29.4019 58.8597 29.9509C58.8149 30.4037 58.4662 30.7694 58.0113 30.8404L46.2873 32.671C42.8833 33.135 41.3418 37.166 43.5559 39.7847L47.6775 44.6437C48.0095 45.0352 47.9575 45.6185 47.5613 45.9465C47.2256 46.2245 46.7396 46.2353 46.3916 45.9725L41.3107 42.1353C38.5689 40.0734 34.6167 41.8259 34.3269 45.2384L33.2073 58.5473C33.1611 59.097 32.6725 59.5056 32.1161 59.46C31.6439 59.4212 31.2623 59.0635 31.1982 58.5996L29.4228 45.7437C28.9469 42.2694 24.7567 40.764 22.1597 43.125L6.73323 57.1717C6.41391 57.4624 5.91648 57.4424 5.62219 57.1269C5.3522 56.8374 5.34399 56.3942 5.60308 56.0952L19.0663 40.5579C21.3942 37.8774 19.6871 33.6916 16.1381 33.3928L4.97826 32.317C4.42258 32.2634 4.01607 31.7749 4.07028 31.2259C4.115 30.7731 4.46374 30.4074 4.91854 30.3364L16.6348 28.506C20.0388 28.042 21.5908 24.0111 19.3767 21.3923L16.571 18.0847C16.1592 17.5993 16.2237 16.876 16.715 16.4692C17.1315 16.1244 17.7343 16.1112 18.1658 16.4374L21.6114 19.0417C24.3532 21.1037 28.3054 19.3511 28.5952 15.9386L29.522 4.9819C29.5805 4.28968 30.196 3.77542 30.8966 3.83327ZM1.21685 29.996C1.8889 29.996 2.43371 30.5349 2.43371 31.1995C2.43371 31.8642 1.8889 32.4031 1.21685 32.4031C0.544804 32.4031 0 31.8642 0 31.1995C0 30.5349 0.544804 29.996 1.21685 29.996ZM62.2468 28.7739C62.9188 28.7739 63.4636 29.3128 63.4636 29.9775C63.4636 30.6422 62.9188 31.181 62.2468 31.181C61.5747 31.181 61.0299 30.6422 61.0299 29.9775C61.0299 29.3128 61.5747 28.7739 62.2468 28.7739ZM30.7209 0C31.3929 0 31.9377 0.538845 31.9377 1.20354C31.9377 1.86824 31.3929 2.40709 30.7209 2.40709C30.0488 2.40709 29.504 1.86824 29.504 1.20354C29.504 0.538845 30.0488 0 30.7209 0Z" fill="white"/>
<path d="M31.4511 41.9569C37.7994 41.9569 42.9457 36.8669 42.9457 30.5881C42.9457 24.3092 37.7994 19.2192 31.4511 19.2192C25.1028 19.2192 19.9565 24.3092 19.9565 30.5881C19.9565 36.8669 25.1028 41.9569 31.4511 41.9569Z" fill="white"/>
</svg>
