<svg xmlns="http://www.w3.org/2000/svg" xml:space="preserve" id="Layer_1" x="0" y="0" version="1.1" viewBox="0 0 300 300"><style>.st0{fill:#fff}</style><path d="M152.29 288.67c3.16 0 5.73 2.54 5.73 5.67s-2.56 5.67-5.73 5.67c-3.16 0-5.73-2.54-5.73-5.67s2.57-5.67 5.73-5.67m-6.22-270.63c2.8.23 5.06 2.35 5.44 5.1l6.81 49.5c2.29 16.35 22.01 23.44 34.19 12.33l68.26-62.13a4.096 4.096 0 0 1 5.73.23 3.98 3.98 0 0 1 .1 5.32l-59.52 68.66c-10.96 12.62-2.87 32.32 13.83 33.73l52.52 5.06c2.62.25 4.53 2.55 4.27 5.14-.21 2.13-1.85 3.85-3.99 4.19l-55.19 8.62c-16.02 2.18-23.28 21.16-12.86 33.49l19.4 22.87a4.313 4.313 0 0 1-.55 6.13 4.45 4.45 0 0 1-5.51.12l-23.92-18.06c-12.91-9.71-31.51-1.46-32.87 14.61l-5.27 62.65c-.22 2.59-2.52 4.51-5.14 4.3-2.22-.18-4.02-1.87-4.32-4.05l-8.36-60.52c-2.24-16.35-21.96-23.44-34.19-12.33l-72.62 66.12c-1.5 1.37-3.84 1.27-5.23-.21a3.63 3.63 0 0 1-.09-4.86l63.37-73.14c10.96-12.62 2.92-32.32-13.78-33.73l-52.53-5.06c-2.62-.25-4.53-2.55-4.27-5.14.21-2.13 1.85-3.85 3.99-4.19l55.15-8.62c16.02-2.18 23.33-21.16 12.91-33.49L78.64 85.13a5.35 5.35 0 0 1 .68-7.6 5.515 5.515 0 0 1 6.83-.15l16.22 12.26c12.91 9.71 31.51 1.46 32.87-14.61l4.36-51.58c.27-3.26 3.17-5.68 6.47-5.41M6.36 141.2c3.16 0 5.73 2.54 5.73 5.67s-2.56 5.67-5.73 5.67c-3.16 0-5.73-2.54-5.73-5.67 0-3.14 2.57-5.67 5.73-5.67m287.28-5.76c3.16 0 5.73 2.54 5.73 5.67s-2.56 5.67-5.73 5.67c-3.16 0-5.73-2.54-5.73-5.67s2.57-5.67 5.73-5.67M145.24 0c3.16 0 5.73 2.54 5.73 5.67s-2.56 5.67-5.73 5.67c-3.16 0-5.73-2.54-5.73-5.67S142.08 0 145.24 0" class="st0"/><path d="M148.68 197.5c29.88 0 54.11-23.96 54.11-53.52s-24.22-53.52-54.11-53.52-54.11 23.96-54.11 53.52 24.23 53.52 54.11 53.52" class="st0"/></svg>