<svg xmlns="http://www.w3.org/2000/svg" xml:space="preserve" width="512" height="512"><path d="m350.286 280.603 5.83 8.124-10.427 7.485-5.831-8.124zM33.68 318.611h15.754v10H33.68zm-21.303-87.092h15.755v10H12.377z"/><path d="M481.264 172.216c-10.822-39.862-47.328-68.533-89.738-68.533-51.274 0-92.988 41.716-92.988 92.991 0 12.128 2.268 23.814 6.748 34.845H41.419v10h62.855v18.14H68.167v10h36.108v48.953h-43.19v10h43.19v17.318H80.191v10h24.084v73.868h321.023V283.332c16.862-6.557 31.308-17.788 41.936-32.65l-8.134-5.818c-8.717 12.189-20.311 21.634-33.802 27.628v-40.974H316.191c-5.077-10.926-7.654-22.632-7.654-34.845 0-45.761 37.229-82.991 82.988-82.991 38.169 0 70.969 26.019 80.318 62.056l-17.575-10.014-4.95 8.689 31.857 18.152 18.447-32.372-8.689-4.952-9.669 16.975zm-76.51 69.303-44.913 32.229 5.83 8.125 49.628-35.612v168.291l-104.161-81.224-6.149 7.886 100.775 78.584h-281.95l100.769-78.584-6.149-7.886-104.158 81.227V246.261l134.653 96.624a27.162 27.162 0 0 0 15.859 5.105c5.56 0 11.119-1.701 15.862-5.105l54.986-39.459-5.831-8.124-54.985 39.458a17.193 17.193 0 0 1-20.062 0l-129.939-93.241h279.935z"/><path d="m307.505 133.801-7.948-6.068c-15.486 20.284-23.671 44.528-23.671 70.111h10c0-23.371 7.475-45.517 21.619-64.043zm27.876-25.46-5.322-8.466a116.376 116.376 0 0 0-19.07 14.983l6.966 7.176a106.285 106.285 0 0 1 17.426-13.693zm56.146-16.139c19.936 0 39.348 5.58 56.141 16.135l5.322-8.466c-18.389-11.559-39.643-17.669-61.463-17.669-15.795 0-31.107 3.129-45.508 9.3l3.938 9.191c13.15-5.634 27.137-8.491 41.57-8.491zm82.19 24.291a116.674 116.674 0 0 0-10.168-9.13l-6.232 7.82a106.828 106.828 0 0 1 9.293 8.346l7.107-7.036zm-86.697 12.19v53.931a15.302 15.302 0 0 0-9.391 9.391h-38.583v10h38.583c2.076 5.957 7.735 10.25 14.391 10.25 8.409 0 15.25-6.842 15.25-15.25 0-6.656-4.293-12.314-10.25-14.391v-53.931h-10zm5 73.572a5.256 5.256 0 0 1-5.25-5.25 5.255 5.255 0 0 1 5.25-5.25 5.254 5.254 0 0 1 5.25 5.25 5.256 5.256 0 0 1-5.25 5.25zm71.398 35.913 8.655 5.008a92.907 92.907 0 0 0 6.122-12.732l-9.316-3.632a82.911 82.911 0 0 1-5.461 11.356z"/></svg>