<svg xmlns="http://www.w3.org/2000/svg" xml:space="preserve" viewBox="0 0 300 300"><path d="M112.5 118.75v112.5c0 1.82-.59 3.32-1.76 4.49s-2.67 1.76-4.49 1.76h-12.5c-1.82 0-3.32-.59-4.49-1.76s-1.76-2.67-1.76-4.49v-112.5c0-1.82.59-3.32 1.76-4.49s2.67-1.76 4.49-1.76h12.5c1.82 0 3.32.59 4.49 1.76s1.76 2.67 1.76 4.49m50 0v112.5c0 1.82-.59 3.32-1.76 4.49s-2.67 1.76-4.49 1.76h-12.5c-1.82 0-3.32-.59-4.49-1.76s-1.76-2.67-1.76-4.49v-112.5c0-1.82.59-3.32 1.76-4.49s2.67-1.76 4.49-1.76h12.5c1.82 0 3.32.59 4.49 1.76s1.76 2.67 1.76 4.49m50 0v112.5c0 1.82-.59 3.32-1.76 4.49s-2.67 1.76-4.49 1.76h-12.5c-1.82 0-3.32-.59-4.49-1.76s-1.76-2.67-1.76-4.49v-112.5c0-1.82.59-3.32 1.76-4.49s2.67-1.76 4.49-1.76h12.5c1.82 0 3.32.59 4.49 1.76s1.76 2.67 1.76 4.49m25 141.41V75h-175v185.16c0 2.86.46 5.5 1.37 7.91s1.86 4.17 2.83 5.27 1.66 1.66 2.05 1.66h162.5c.39 0 1.07-.55 2.05-1.66s1.92-2.86 2.83-5.27 1.37-5.05 1.37-7.91M106.25 50h87.5l-9.38-22.85c-.91-1.17-2.02-1.89-3.32-2.15h-61.91c-1.3.26-2.41.98-3.32 2.15zm181.25 6.25v12.5c0 1.82-.59 3.32-1.76 4.49S283.07 75 281.25 75H262.5v185.16c0 10.81-3.06 20.15-9.18 28.03s-13.48 11.82-22.07 11.82H68.75c-8.59 0-15.95-3.81-22.07-11.43s-9.18-16.83-9.18-27.64V75H18.75c-1.82 0-3.32-.59-4.49-1.76s-1.76-2.67-1.76-4.49v-12.5c0-1.82.59-3.32 1.76-4.49S16.93 50 18.75 50H79.1l13.67-32.62c1.95-4.82 5.47-8.92 10.55-12.3S113.54 0 118.75 0h62.5c5.21 0 10.35 1.69 15.43 5.08s8.59 7.49 10.55 12.3L220.9 50h60.35c1.82 0 3.32.59 4.49 1.76s1.76 2.67 1.76 4.49" style="fill:red"/></svg>