<svg xmlns="http://www.w3.org/2000/svg" xml:space="preserve" style="enable-background:new 0 0 300 300" viewBox="0 0 300 300"><path d="M256.1 43.9c-58.6-58.6-153.6-58.6-212.1 0-58.6 58.6-58.6 153.6 0 212.1 58.6 58.6 153.6 58.6 212.1 0 58.5-58.5 58.5-153.5 0-212.1zM243.4 220c-38.6 51.6-111.7 62.1-163.3 23.5l46.3-46.3c6.2-6.5 6.2-16.7 0-23.2-6.4-6.6-16.9-6.8-23.6-.4l-46.3 46.3c-30.9-41.4-30.9-98.2 0-139.6C95.1 28.6 168.2 18 219.9 56.6l-46.3 46.3c-6.2 6.5-6.2 16.7 0 23.2 6.4 6.6 16.9 6.8 23.6.4l46.3-46.3c31 41.4 31 98.3-.1 139.8z"/></svg>