<svg xmlns="http://www.w3.org/2000/svg" xml:space="preserve" viewBox="0 0 300 300"><circle cx="149" cy="149.5" r="150" style="fill:#fff"/><path d="M242 58C191.2 7.3 108.8 7.3 58.1 58c-50.8 50.8-50.8 133.1 0 183.8 50.8 50.8 133.2 50.8 183.9 0 50.7-50.6 50.7-133 0-183.8m-11 152.7c-33.5 44.7-96.8 53.8-141.6 20.4l40.1-40.1c5.4-5.6 5.4-14.5 0-20.1-5.5-5.7-14.7-5.9-20.5-.3l-40.1 40.1c-26.8-35.9-26.8-85.1 0-121 33.5-44.8 96.8-54 141.6-20.5l-40.1 40.1c-5.4 5.6-5.4 14.5 0 20.1 5.5 5.7 14.7 5.9 20.5.3L231 89.6c26.9 35.8 26.9 85.1 0 121.1"/></svg>