<svg xmlns="http://www.w3.org/2000/svg" xml:space="preserve" viewBox="0 0 300 300"><radialGradient id="a" cx="13.973" cy="-308.728" r=".586" gradientTransform="matrix(512 0 0 512 -7154 158219)" gradientUnits="userSpaceOnUse"><stop offset="0" style="stop-color:#5d9df6"/><stop offset="1" style="stop-color:#006fff"/></radialGradient><path d="M150.42.39c82.85 0 150 67.15 150 150s-67.15 150-150 150-150-67.15-150-150 67.14-150 150-150" style="fill-rule:evenodd;clip-rule:evenodd;fill:url(#a)"/><path d="M95.75 115.95c30.18-29.47 79.16-29.47 109.34 0l3.63 3.57a3.685 3.685 0 0 1 0 5.33l-12.42 12.13c-.76.76-1.99.76-2.75 0l-4.98-4.86c-21.09-20.57-55.2-20.57-76.29 0l-5.33 5.21c-.76.76-1.99.76-2.75 0L91.78 125.2a3.685 3.685 0 0 1 0-5.33zm135.06 25.08 11.07 10.78a3.685 3.685 0 0 1 0 5.33l-49.86 48.69c-1.52 1.46-3.98 1.46-5.45 0l-35.39-34.57c-.35-.35-1-.35-1.35 0l-35.39 34.57c-1.52 1.46-3.98 1.46-5.45 0l-50.04-48.69a3.685 3.685 0 0 1 0-5.33l11.07-10.78c1.52-1.46 3.98-1.46 5.45 0l35.39 34.57c.35.35 1 .35 1.35 0l35.39-34.57c1.52-1.46 3.98-1.46 5.45 0l35.39 34.57c.35.35 1 .35 1.35 0l35.39-34.57c1.64-1.47 4.1-1.47 5.63 0" style="fill:#fff"/></svg>